<?xml version="1.0" encoding="iso-8859-1"?>
<!-- Generator: Adobe Illustrator 19.0.0, SVG Export Plug-In . SVG Version: 6.00 Build 0)  -->
<svg version="1.1" id="Layer_1" xmlns="http://www.w3.org/2000/svg" xmlns:xlink="http://www.w3.org/1999/xlink" x="0px" y="0px"
	 viewBox="0 0 512 512" style="enable-background:new 0 0 512 512;" xml:space="preserve">
<circle style="fill:#E21B1B;" cx="113.704" cy="113.704" r="113.704"/>
<path style="fill:#FFFFFF;" d="M108.256,176.096V160.8c-8.96-0.104-17.744-2.488-25.528-6.928l4.256-14.824
	c7.448,4.416,15.928,6.808,24.584,6.936c9.928,0,16.704-4.88,16.704-12.456c0-7.088-5.512-11.656-17.176-15.912
	c-16.544-5.992-27.256-13.552-27.256-28.208c0.304-14.12,11.28-25.704,25.36-26.776V47.2h12.92v14.64
	c7.552,0.08,14.984,1.856,21.752,5.2l-4.256,14.504c-6.616-3.472-13.96-5.312-21.432-5.36c-11.032,0-14.968,5.672-14.968,11.032
	c0,6.464,5.672,10.088,19.064,15.448c17.656,6.616,25.528,15.128,25.528,29.152c-0.304,14.824-11.848,26.976-26.632,28.056v16.232
	L108.256,176.096z"/>
<circle style="fill:#999999;" cx="113.704" cy="398.296" r="113.704"/>
<path style="fill:#FFFFFF;" d="M151.896,447.632c-8.248,4.672-17.568,7.112-27.048,7.072c-15.408,0.432-30.152-6.288-39.944-18.2
	c-6.16-7.528-10.032-16.672-11.144-26.344H62.448v-10.784h9.896v-2.832c0-2.12,0.176-4.416,0.36-6.36H62.448V379.2h11.84
	c1.816-9.968,6.408-19.216,13.256-26.688c9.672-10.864,23.632-16.936,38.176-16.616c8.728-0.064,17.36,1.808,25.28,5.48
	l-4.424,16.44c-6.128-3.144-12.912-4.784-19.8-4.8c-8.552-0.216-16.768,3.344-22.456,9.728c-4.032,4.672-6.72,10.352-7.776,16.44
	h46.336v10.96H94.448c-0.304,2.048-0.424,4.12-0.36,6.184v3h48.8v10.832H96c0.784,6.392,3.424,12.424,7.6,17.328
	c6.184,6.4,14.792,9.864,23.688,9.536c7.272-0.088,14.424-1.904,20.856-5.296L151.896,447.632z"/>
<circle cx="398.296" cy="256" r="113.704"/>
<path style="fill:#FFFFFF;" d="M389.504,315.672v-28.04h-26.2v-10.256h26.2V265.96h-26.2v-10.256h20.992l-27.88-49.208h22.344
	l14.112,30.4c3.016,6.216,4.864,11.424,7.048,16.8h0.344c2.016-5.032,4.192-10.912,7.048-17.128l14.616-30.072h21.832l-29.36,49.208
	h20.8v10.248h-26.4v11.424h26.4v10.248h-26.4v28.048L389.504,315.672L389.504,315.672z"/>
<g>
</g>
<g>
</g>
<g>
</g>
<g>
</g>
<g>
</g>
<g>
</g>
<g>
</g>
<g>
</g>
<g>
</g>
<g>
</g>
<g>
</g>
<g>
</g>
<g>
</g>
<g>
</g>
<g>
</g>
</svg>
