<?xml version="1.0" encoding="iso-8859-1"?>
<!-- Generator: Adobe Illustrator 19.0.0, SVG Export Plug-In . SVG Version: 6.00 Build 0)  -->
<svg version="1.1" id="Layer_1" xmlns="http://www.w3.org/2000/svg" xmlns:xlink="http://www.w3.org/1999/xlink" x="0px" y="0px"
	 viewBox="0 0 512 512" style="enable-background:new 0 0 512 512;" xml:space="preserve">
<path style="fill:#FFE356;" d="M256,0c141.439,0,256,114.561,256,256S397.439,512,256,512S0,397.439,0,256S114.561,0,256,0z"/>
<path style="fill:#FCD34E;" d="M38.944,256C163.42,56.265,348.7,56.265,473.176,256C348.7,455.735,163.42,455.735,38.944,256z"/>
<path style="fill:#FEFEFE;" d="M38.944,256C163.42,72.87,348.7,72.87,473.176,256C348.7,439.13,163.42,439.13,38.944,256z"/>
<circle style="fill:#83CF8F;" cx="256" cy="256" r="105.601"/>
<circle style="fill:#75BD80;" cx="256" cy="256" r="73.825"/>
<circle style="fill:#666666;" cx="256" cy="256" r="38.346"/>
<g>
	<circle style="fill:#FFFFFF;" cx="203.677" cy="212.517" r="18.277"/>
	<circle style="fill:#FFFFFF;" cx="287.776" cy="287.776" r="12.424"/>
</g>
<g>
</g>
<g>
</g>
<g>
</g>
<g>
</g>
<g>
</g>
<g>
</g>
<g>
</g>
<g>
</g>
<g>
</g>
<g>
</g>
<g>
</g>
<g>
</g>
<g>
</g>
<g>
</g>
<g>
</g>
</svg>
